<?xml version="1.0" encoding="UTF-8"?>
<svg width="18" height="18" version="1.1" viewBox="0 0 18 18" xml:space="preserve" xmlns="http://www.w3.org/2000/svg">
<path transform="rotate(-90)" d="m-12.4 8h6.75c0.346 0 0.625 0.446 0.625 1s-0.279 1-0.625 1h-6.75c-0.346 0-0.625-0.446-0.625-1s0.279-1 0.625-1z" fill="#fff"/>
<path d="m5.75 8h6.5c0.416 0 0.75 0.446 0.75 1s-0.334 1-0.75 1h-6.5c-0.416 0-0.75-0.446-0.75-1s0.334-1 0.75-1z" fill="#fff"/>
<path d="m5 1h8c2.22 0 4 1.78 4 4v8c0 2.22-1.78 4-4 4h-8c-2.22 0-4-1.78-4-4v-8c0-2.22 1.78-4 4-4z" fill="none" stroke="#fff" stroke-linecap="round" stroke-linejoin="round" stroke-width="2" style="paint-order:stroke markers fill"/></svg>
