<?xml version="1.0" encoding="UTF-8"?>
<svg width="512" height="512" version="1.1" viewBox="0 0 135 135" xmlns="http://www.w3.org/2000/svg">
 <g stroke-width=".265">
  <path d="m135 3e-5 -135-3e-5v135h135z" fill="#695716"/>
  <path d="m46.8 4e-3 88.7-4e-3s-52.9 20.3-52 30.8c-16.4-4.2-29.8-15.7-36.7-30.8zm36.7 30.8c2.6 28.9 24.1 52.3 52 57.8l-4e-3 -88.6s-33.5 35.4-52 30.8z" fill="#f5d03d"/>
  <path d="m135 17.4c-9.96 9.36-23.3 15.1-38.1 15.1-4.79 2.64e-4 -9.45-0.606-13.9-1.75-0.175-1.94-0.279-3.91-0.279-5.9-5.3e-4 -8.81 1.76-17.2 4.94-24.9l47.3-0.0021z" fill="#e0b300"/>
  <path d="m90.8 135-90.8 4e-3s-8.29e-4 -16.9-4e-3 -87.1c48.9-0.0021 88.8 38.7 90.8 87.1z" fill="#ebca47"/>
  <path d="m0.00529 113c7.58-7.68 18.1-12.4 29.8-12.4 20.6-1e-3 37.7 14.9 41.2 34.4l-70.9 3e-3z" fill="#cca300"/>
  <path d="m112 67.7c8.6e-4 24.3-19.7 43.9-43.9 43.9-24.3 8.6e-4 -43.9-19.7-43.9-43.9-0.0011-24.3 19.7-43.9 43.9-43.9 24.3-0.0011 43.9 19.7 43.9 43.9z" fill="#fff"/>
 </g>
 <style type="text/css">.st0{fill:#691640;}
	.st1 { 
}
	.st2 { 
}
	.st3{fill:#FFFFFF;}</style>
 <style type="text/css">.st0{fill:#691640;}
	.st1{fill:#B81466;}
	.st2{fill:#99004D;}
	.st3{fill:#FFFFFF;}</style>
 <g fill="#695716" stroke-width=".12006" aria-label="B">
  <path d="m59.477 70.246h12.935c3.4579 0 8.3885 2.1131 8.3885 6.1473 0 4.2263-4.9307 5.3789-8.3885 5.3789h-12.935zm0-17.738h12.935c5.3789 0 7.0438 3.4579 7.0438 5.507 0 2.5614-1.7289 4.8026-7.0438 4.8026h-12.935zm12.935-7.6842h-21.259v44.824h21.259c9.285 0 16.777-3.2017 16.777-13.191 0-2.8175-1.921-8.3885-7.1719-9.9894 4.1622-1.857 5.8271-5.1868 5.8271-8.6447 0-9.0289-6.5956-12.999-15.432-12.999z"/>
 </g>
</svg>
