<?xml version="1.0" encoding="UTF-8"?>
<svg width="512" height="512" version="1.1" viewBox="0 0 24 24" xmlns="http://www.w3.org/2000/svg">
 <g fill="none">
  <path d="M24 0v24H0V0h24ZM12.594 23.258l-.012.002l-.071.035l-.02.004l-.014-.004l-.071-.036c-.01-.003-.019 0-.024.006l-.004.01l-.017.428l.005.02l.01.013l.104.074l.015.004l.012-.004l.104-.074l.012-.016l.004-.017l-.017-.427c-.002-.01-.009-.017-.016-.018Zm.264-.113l-.014.002l-.184.093l-.01.01l-.003.011l.018.43l.005.012l.008.008l.201.092c.012.004.023 0 .029-.008l.004-.014l-.034-.614c-.003-.012-.01-.02-.02-.022Zm-.715.002a.023.023 0 0 0-.027.006l-.006.014l-.034.614c0 .012.007.02.017.024l.015-.002l.201-.093l.01-.008l.003-.011l.018-.43l-.003-.012l-.01-.01l-.184-.092Z"/>
  <path d="m12 3c3.866 0 7 3.134 7 7v3.764l1.822 3.644c0.36579 0.73146-0.16618 1.5921-0.984 1.592h-15.676c-0.81782 1.21e-4 -1.3498-0.86054-0.984-1.592l1.822-3.644v-3.764c0-3.866 3.134-7 7-7zm0 2c-2.7614 0-5 2.2386-5 5v3.764c-2.11e-5 0.31033-0.07226 0.61641-0.211 0.894l-1.17 2.342h12.763l-1.17-2.342c-0.13909-0.27751-0.21167-0.58359-0.212-0.894v-3.764c0-2.7614-2.2386-5-5-5zm-3 15h6c0 1.1046-0.89543 2-2 2h-2c-1.1046 0-2-0.89543-2-2z" fill="#000"/>
 </g>
</svg>
