<?xml version="1.0" encoding="UTF-8"?>
<svg width="18" height="18" version="1.1" viewBox="0 0 18 18" xmlns="http://www.w3.org/2000/svg">
 <circle cx="9" cy="9" r="8" fill="none" stroke="#fff" stroke-dashoffset="6.81" stroke-linecap="round" stroke-linejoin="round" stroke-width="2" style="paint-order:markers stroke fill"/>
 <path d="m12.6 9 1.81-3.14c0.978 1.67 1.12 3.71 0.385 5.5h-3.55zm1.32-3.86-1.81 3.07-0.864-1.5-2.28-4c1.94 0.00387 3.76 0.9 4.95 2.43zm-5.81-2.36 1.78 3.07h-6.35c0.97-1.67 2.66-2.81 4.57-3.07zm-5.42 6.22c-4.45e-4 -0.808 0.157-1.61 0.464-2.36h3.55l-1.36 2.36-1.81 3.14c-0.556-0.954-0.849-2.04-0.848-3.14zm6.29 6.29c-1.94-0.0039-3.76-0.9-4.95-2.43l1.81-3.07 0.707 1.23 2.44 4.27m0.864-0.0707-1.78-3.07h6.35c-0.97 1.67-2.66 2.81-4.57 3.07" fill="#fff"/>
</svg>
