<?xml version="1.0" encoding="UTF-8"?>
<svg width="512" height="512" version="1.1" viewBox="0 0 135 135" xmlns="http://www.w3.org/2000/svg">
 <g stroke-width=".265">
  <path d="m135 3e-5 -135-3e-5v135h135z" fill="#552a69"/>
  <path d="m46.8 4e-3 88.7-4e-3s-52.9 20.3-52 30.8c-16.4-4.2-29.8-15.7-36.7-30.8zm36.7 30.8c2.6 28.9 24.1 52.3 52 57.8l-4e-3 -88.6s-33.5 35.4-52 30.8z" fill="#9f53c5"/>
  <path d="m135 17.4c-9.96 9.36-23.3 15.1-38.1 15.1-4.79 2.64e-4 -9.45-0.606-13.9-1.75-0.175-1.94-0.279-3.91-0.279-5.9-5.3e-4 -8.81 1.76-17.2 4.94-24.9l47.3-0.0021z" fill="#9039b8"/>
  <path d="m90.8 135-90.8 4e-3s-8.29e-4 -16.9-4e-3 -87.1c48.9-0.0021 88.8 38.7 90.8 87.1z" fill="#9f53c5"/>
  <path d="m0.00529 113c7.58-7.68 18.1-12.4 29.8-12.4 20.6-1e-3 37.7 14.9 41.2 34.4l-70.9 3e-3z" fill="#9039b8"/>
 </g>
 <path d="m112 67.7c8.6e-4 24.3-19.7 43.9-43.9 43.9-24.3 8.6e-4 -43.9-19.7-43.9-43.9-0.0011-24.3 19.7-43.9 43.9-43.9 24.3-0.0011 43.9 19.7 43.9 43.9z" fill="#fff" stroke-width=".265"/>
 <g fill="#552a69" stroke-width=".12006" aria-label="D">
  <g stroke-width=".014415" aria-label="D">
   <path d="m68.498 44.824h-17.61v44.824h17.61c15.688 0 22.604-11.462 22.412-22.796-0.1921-11.078-7.0438-22.028-22.412-22.028zm-9.221 8.0043h9.221c9.7333 0 13.831 6.9798 14.024 13.96 0.1921 7.2999-3.8421 14.728-14.024 14.728h-9.221z"/>
  </g>
 </g>
</svg>
