<?xml version="1.0" encoding="UTF-8"?>
<svg width="24" height="24" version="1.1" viewBox="0 0 24 24" xmlns="http://www.w3.org/2000/svg">
 <path d="m8.69 16.8-0.16 3.19-2.91 1.55-2.74-1.64 0.16-3.19 2.91-1.55z" fill="#fff"/>
 <path d="m12.4 18.7 2.67-0.031 1.36 2.15-1.3 2.18-2.67 0.031-1.36-2.15z" fill="none" stroke="#fff" stroke-width="2"/>
 <path d="m5.81 10.7-0.113 2.66-2.41 1.16-2.29-1.51 0.113-2.66 2.41-1.16z" fill="#fff"/>
 <path d="m22 12.6-8.13e-4 2.93-2.56 1.38-2.56-1.55 8.13e-4 -2.93 2.56-1.38z" fill="none" stroke="#fff" stroke-width="2"/>
 <path d="m18.6 2 1.8 2.98-1.79 2.99-3.61 0.00758-1.8-2.98 1.79-2.99z" fill="none" stroke="#fff" stroke-width="2"/>
 <path d="m8.22 14.5-0.0736-3.45 3.01-1.68 3.08 1.76 0.0736 3.45-3.01 1.68z" fill="#fff"/>
 <path d="m7.97 2.53 2.58 2.04-0.433 3.35-3.01 1.31-2.58-2.04 0.433-3.35z" fill="#fff"/>
</svg>
