<?xml version="1.0" encoding="UTF-8" standalone="no"?>
<svg
   width="18"
   height="18"
   version="1.1"
   viewBox="0 0 18 18"
   xml:space="preserve"
   id="svg1568"
   sodipodi:docname="download.svg"
   inkscape:version="1.2.2 (732a01da63, 2022-12-09)"
   xmlns:inkscape="http://www.inkscape.org/namespaces/inkscape"
   xmlns:sodipodi="http://sodipodi.sourceforge.net/DTD/sodipodi-0.dtd"
   xmlns="http://www.w3.org/2000/svg"
   xmlns:svg="http://www.w3.org/2000/svg"><defs
   id="defs1572" /><sodipodi:namedview
   id="namedview1570"
   pagecolor="#ffffff"
   bordercolor="#000000"
   borderopacity="0.25"
   inkscape:showpageshadow="2"
   inkscape:pageopacity="0.0"
   inkscape:pagecheckerboard="true"
   inkscape:deskcolor="#d1d1d1"
   showgrid="false"
   inkscape:zoom="48.583333"
   inkscape:cx="11.989708"
   inkscape:cy="6.9982848"
   inkscape:window-width="3440"
   inkscape:window-height="1369"
   inkscape:window-x="2872"
   inkscape:window-y="-8"
   inkscape:window-maximized="1"
   inkscape:current-layer="svg1568" />
  
  
  
  
  
  
  
  
  
  
  
  
  
  
  
  
  
  
  <g
   transform="matrix(0.03333333,0,0,0.03281271,0.46666672,-1.5376034)"
   fill="#ffffff"
   stroke-width="24.19"
   id="g1566">
    
	<g
   fill="#ffffff"
   stroke-width="24.19"
   id="g1564">
		<path
   d="m 382.56,233.38 c -2.592,-5.728 -8.288,-9.376 -14.56,-9.376 h -70.00996 l -2e-5,-161.144005 c 0,-8.832 -7.168,-16 -16,-16 h -51.98 c -8.832,0 -16,7.168 -16,16 l 2e-5,161.144005 H 144 c -6.272,0 -11.968,3.68 -14.56,9.376 -2.624,5.728 -1.6,12.416 2.528,17.152 l 112,128 c 3.04,3.488 7.424,5.472 12.032,5.472 4.608,0 8.992,-2.016 12.032,-5.472 l 112,-128 c 4.16,-4.704 5.12,-11.424 2.528,-17.152 z"
   id="path1560"
   sodipodi:nodetypes="sscsssscscccsccs" />

	


    
	
		<path
   d="m 460.00004,390.09595 v 91.42799 H 52.000004 v -91.42799 h -66.000007 v 121.90398 c 0,16.85323 16.128002,30.476 36.000004,30.476 H 490.00005 c 19.908,0 36,-13.62277 36,-30.476 V 390.09595 Z"
   id="path1562"
   style="stroke-width:25.039"
   sodipodi:nodetypes="cccccsssscc" />

	</g>


    
    
    
    
    
    
    
    
    
    
    
    
    
    
    
  </g>
</svg>
