<?xml version="1.0" encoding="UTF-8"?>
<svg width="18" height="18" version="1.1" viewBox="0 0 18 18" xml:space="preserve" xmlns="http://www.w3.org/2000/svg">
<path d="m4 13c-1.66 0-3-1.34-3-3v-6c0-1.66 1.34-3 3-3h6c1.66 0 3 1.34 3 3" fill="none" stroke="#fff" stroke-dashoffset="12.8" stroke-linecap="round" stroke-linejoin="round" stroke-width="2" style="paint-order:stroke markers fill"/><path d="m7.77 5h6.46c1.53 0 2.77 1.24 2.77 2.77v6.46c0 1.53-1.24 2.77-2.77 2.77h-6.46c-1.53 0-2.77-1.24-2.77-2.77v-6.46c0-1.53 1.24-2.77 2.77-2.77z" fill="none" stroke="#fff" stroke-dashoffset="12.8" stroke-linecap="round" stroke-linejoin="round" stroke-width="2" style="paint-order:stroke markers fill"/><path d="m10 13.5v-5.06c0-0.26 0.446-0.469 1-0.469s1 0.209 1 0.469v5.06c0 0.26-0.446 0.469-1 0.469s-1-0.209-1-0.469z" fill="#fff"/><path d="m8.56 10h4.88c0.312 0 0.562 0.446 0.562 1s-0.25 1-0.562 1h-4.88c-0.312 0-0.562-0.446-0.562-1s0.25-1 0.562-1z" fill="#fff"/></svg>
