<?xml version="1.0" encoding="UTF-8"?>
<svg width="512" height="512" version="1.1" viewBox="0 0 135 135" xmlns="http://www.w3.org/2000/svg">
 <g stroke-width=".265">
  <path d="m135 3e-5 -135-3e-5v135h135z" fill="#1d5759"/>
  <path d="m46.8 4e-3 88.7-4e-3s-52.9 20.3-52 30.8c-16.4-4.2-29.8-15.7-36.7-30.8zm36.7 30.8c2.6 28.9 24.1 52.3 52 57.8l-4e-3 -88.6s-33.5 35.4-52 30.8z" fill="#3fced0"/>
  <path d="m135 17.4c-9.96 9.36-23.3 15.1-38.1 15.1-4.79 2.7e-4 -9.45-0.606-13.9-1.75-0.175-1.94-0.279-3.91-0.279-5.9 0-8.81 1.76-17.2 4.94-24.9l47.3-2e-3z" fill="#27b4b7"/>
  <path d="m90.8 135-90.8 4e-3s0-16.9-4e-3 -87.1c48.9-2e-3 88.8 38.7 90.8 87.1z" fill="#3fced0"/>
  <path d="m0.00529 113c7.58-7.68 18.1-12.4 29.8-12.4 20.6-1e-3 37.7 14.9 41.2 34.4l-70.9 3e-3z" fill="#27b4b7"/>
 </g>
 <path d="m112 67.7c0 24.3-19.7 43.9-43.9 43.9s-43.9-19.7-43.9-43.9c0-24.3 19.7-43.9 43.9-43.9 24.3-8.65e-4 43.9 19.7 43.9 43.9z" fill="#fff" stroke-width=".265"/>
 <path d="m83.8 90.2-33.4 0.0017c0-14.9-0.0026-29.9-0.0026-44.8l33.4-0.0017v8.2l-25 8.65e-4v10.3l24.2-8.65e-4v7.88l-24.2 8.65e-4v10.1l25-8.65e-4z" fill="#1d5759" stroke-width=".265"/>
</svg>
