<?xml version="1.0" encoding="UTF-8"?>
<svg width="24" height="24" version="1.1" viewBox="0 0 24 24" xmlns="http://www.w3.org/2000/svg">
 <g transform="matrix(.905 0 0 .897 -2.99 -.569)" fill="#fefefe" stroke-width="1.11">
  <g fill="#fefefe" stroke-width="1.11">
   <path d="m15.9 26.8 10.2-10.2c0.8-0.8 0.8-2 0-2.8l-11.6-11.6c-0.6-0.6-1.4-0.6-2 0s-0.6 1.4 0 2l1 1-9.6 9.6c-0.8 0.8-0.8 2 0 2.8l9.2 9.2c0.8 0.8 2 0.8 2.8 0zm0.3-18.9 5.6 5.6c0.6 0.6 0.2 1.7-0.7 1.7h-11.2c-0.9 0-1.3-1.1-0.7-1.7l5.6-5.6c0.4-0.4 1-0.4 1.4 0z"/>
   <path d="m27.5 26.2c1.8 0 2.9-1.9 2-3.5l-2-3.5-2 3.5c-0.9 1.6 0.2 3.5 2 3.5z"/>
  </g>
 </g>
</svg>
