<?xml version="1.0" encoding="UTF-8"?>
<svg width="24" height="24" version="1.1" viewBox="0 0 24 24" xmlns="http://www.w3.org/2000/svg">
 <g fill="#fff">
  <path d="m7.28 6.08c-0.661 0-1.2 0.541-1.2 1.2 0 0.661 0.541 1.2 1.2 1.2s1.2-0.541 1.2-1.2c0-0.661-0.541-1.2-1.2-1.2z"/>
  <path d="m6.88 10.5c-0.881 0-1.6 0.721-1.6 1.6 0 0.881 0.721 1.6 1.6 1.6 0.881 0 1.6-0.721 1.6-1.6 0-0.881-0.721-1.6-1.6-1.6z"/>
  <path d="m12.1 8.48c0.881 0 1.6-0.721 1.6-1.6 0-0.881-0.721-1.6-1.6-1.6s-1.6 0.721-1.6 1.6c0 0.881 0.721 1.6 1.6 1.6z"/>
  <path d="m7.28 15.7c-0.661 0-1.2 0.541-1.2 1.2 0 0.661 0.541 1.2 1.2 1.2 0.661 0 1.2-0.541 1.2-1.2 0-0.661-0.541-1.2-1.2-1.2z"/>
  <path d="m17.3 10.5c-0.881 0-1.6 0.721-1.6 1.6 0 0.881 0.721 1.6 1.6 1.6 0.881 0 1.6-0.721 1.6-1.6 0-0.881-0.721-1.6-1.6-1.6z"/>
  <path d="m16.9 15.7c-0.661 0-1.2 0.541-1.2 1.2 0 0.661 0.541 1.2 1.2 1.2 0.661 5.6e-5 1.2-0.541 1.2-1.2 0-0.661-0.541-1.2-1.2-1.2z"/>
  <path d="m16.9 6.08c-0.661 0-1.2 0.541-1.2 1.2 0 0.661 0.541 1.2 1.2 1.2 0.661 0 1.2-0.541 1.2-1.2 0-0.661-0.541-1.2-1.2-1.2z"/>
  <path d="m12.1 10.1c-1.11 0-2 0.895-2 2 0 1.11 0.895 2 2 2 1.11 0 2-0.895 2-2 0-1.11-0.895-2-2-2z"/>
  <path d="m12.1 15.7c-0.881 0-1.6 0.721-1.6 1.6 0 0.881 0.721 1.6 1.6 1.6 0.881 0 1.6-0.721 1.6-1.6 0-0.881-0.721-1.6-1.6-1.6z"/>
  <path d="m12.1 2.47c-0.441 0-0.801 0.361-0.801 0.801 0 0.441 0.361 0.801 0.801 0.801 0.441 0 0.801-0.361 0.801-0.801-7.5e-5 -0.441-0.361-0.801-0.801-0.801z"/>
  <path d="m12.1 20.1c-0.441 0-0.801 0.361-0.801 0.801 0 0.441 0.361 0.801 0.801 0.801 0.441 0 0.801-0.361 0.801-0.801-7.5e-5 -0.441-0.361-0.801-0.801-0.801z"/>
  <path d="m21.7 12.1c0-0.441-0.361-0.801-0.801-0.801-0.441 0-0.801 0.361-0.801 0.801 0 0.441 0.361 0.801 0.801 0.801 0.441-7.4e-5 0.801-0.361 0.801-0.801z"/>
  <path d="m4.07 12.1c0-0.441-0.361-0.801-0.801-0.801-0.441 0-0.801 0.361-0.801 0.801 0 0.441 0.361 0.801 0.801 0.801 0.441-7.6e-5 0.801-0.361 0.801-0.801z"/>
 </g>
 <path d="m22.3 12a10.2 10.2 0 0 1-10.2 10.2 10.2 10.2 0 0 1-10.3-10.2 10.2 10.2 0 0 1 10.3-10.3 10.2 10.2 0 0 1 10.2 10.3" fill="none" stroke="#fff" stroke-dashoffset="7.4" stroke-linejoin="round" stroke-width="2.3" style="paint-order:normal"/>
</svg>
