<?xml version="1.0" encoding="UTF-8" standalone="no"?>
<svg
   xmlns:dc="http://purl.org/dc/elements/1.1/"
   xmlns:cc="http://creativecommons.org/ns#"
   xmlns:rdf="http://www.w3.org/1999/02/22-rdf-syntax-ns#"
   xmlns:svg="http://www.w3.org/2000/svg"
   xmlns="http://www.w3.org/2000/svg"
   xmlns:sodipodi="http://sodipodi.sourceforge.net/DTD/sodipodi-0.dtd"
   xmlns:inkscape="http://www.inkscape.org/namespaces/inkscape"
   width="24"
   height="24"
   viewBox="0 0 6.3499999 6.3500002"
   version="1.1"
   id="svg8"
   inkscape:version="1.0beta1 (fe3e306, 2019-09-17)"
   sodipodi:docname="hand.svg">
  <defs
     id="defs2" />
  <sodipodi:namedview
     id="base"
     pagecolor="#ffffff"
     bordercolor="#666666"
     borderopacity="1.0"
     inkscape:pageopacity="0.0"
     inkscape:pageshadow="2"
     inkscape:zoom="22.4"
     inkscape:cx="9.7575211"
     inkscape:cy="12.269088"
     inkscape:document-units="mm"
     inkscape:current-layer="svg8"
     inkscape:document-rotation="0"
     showgrid="false"
     units="px"
     inkscape:window-width="1718"
     inkscape:window-height="1368"
     inkscape:window-x="-7"
     inkscape:window-y="0"
     inkscape:window-maximized="0"
     inkscape:pagecheckerboard="true"
     inkscape:showpageshadow="false" />
  <metadata
     id="metadata5">
    <rdf:RDF>
      <cc:Work
         rdf:about="">
        <dc:format>image/svg+xml</dc:format>
        <dc:type
           rdf:resource="http://purl.org/dc/dcmitype/StillImage" />
        <dc:title></dc:title>
      </cc:Work>
    </rdf:RDF>
  </metadata>
  <g
     inkscape:label="Layer 1"
     inkscape:groupmode="layer"
     id="layer1" />
  <path
     id="path858"
     d="m 6.2997389,2.2814251 -0.00346,0.00473 -0.00261,0.00523 C 6.2706018,2.3391506 6.2118989,2.4375059 6.1375337,2.5624598 5.8588389,3.0310904 5.5430319,3.7445491 5.4803079,4.2372393 5.2546005,6.0124899 4.5335923,6.1117616 3.6938389,6.1117616 c -0.8624723,0 -1.4264234,-0.3889732 -1.9069074,-0.8092733 L 0.09648419,3.8253243 C -0.0223315,3.7197026 -0.0328443,3.5371045 0.07291819,3.4183592 c 0.055598,-0.062371 0.13327958,-0.095462 0.21314867,-0.095462 0.04057,0 0.0816329,0.00854 0.12065009,0.026176 l 7.067e-4,-0.00149 c 0.018697,0.00931 0.16756968,0.083044 0.5739703,0.2861031 0.19600355,0.09779 0.62173635,0.2936526 0.88674335,0.2936526 0.056797,0 0.1060451,-0.00903 0.1440746,-0.029775 C 2.3282321,3.7259738 2.1866972,3.1084002 1.9155519,2.1116606 L 1.565737,0.82289107 C 1.542665,0.74485707 1.551203,0.66272991 1.59029,0.59132761 1.629307,0.51992431 1.6936536,0.46785525 1.7719001,0.44471285 c 0.028575,-0.00833 0.057574,-0.012629 0.086642,-0.012629 0.050094,0 0.099978,0.012629 0.1452035,0.037324 0.071402,0.039017 0.1233314,0.10301116 0.1471085,0.18422076 L 2.7026696,2.2441645 c 0.09772,0.279612 0.1633364,0.3762732 0.2645131,0.3762732 0.00903,0 0.018344,-8.533e-4 0.027871,-0.0024 C 3.1078717,2.6006107 3.1309434,2.4928721 3.134189,2.2993378 L 3.163964,0.30423587 C 3.163964,0.13645459 3.3005595,0 3.4682705,0 3.6362635,0 3.7728592,0.13652519 3.7728592,0.30550597 L 3.8101822,2.209591 c 0.0048,0.191206 0.028928,0.390314 0.171168,0.4185364 0.011077,0.00227 0.021803,0.00331 0.032103,0.00331 0.1641124,0 0.2226736,-0.273121 0.2457454,-0.3799421 L 4.5822727,0.71423331 c 0.013616,-0.080222 0.057926,-0.1499306 0.12446,-0.196568 0.051788,-0.036548 0.1123952,-0.0554569 0.1744844,-0.0554569 0.017781,0 0.035489,0.001411 0.05334,0.00451 0.080081,0.01404 0.1500716,0.0583499 0.1969207,0.1249542 0.046638,0.066393 0.064771,0.14717876 0.050518,0.22923526 L 4.9200228,2.6506275 c -0.016723,0.1168401 0.023355,0.2156181 0.1019531,0.2513192 0.020109,0.00903 0.040922,0.013547 0.062301,0.013547 0.05588,0 0.1144412,-0.031186 0.1660879,-0.091228 L 5.8842366,1.9760411 c 0.040781,-0.055598 0.100824,-0.091723 0.1687694,-0.1022357 0.012981,-0.00197 0.026035,-0.00296 0.038947,-0.00296 0.054681,0 0.1077381,0.017285 0.1526117,0.050306 0.055598,0.040852 0.092005,0.100824 0.1023763,0.1687691 0.010516,0.068086 -0.00628,0.1361018 -0.047201,0.1914879 z"
     inkscape:connector-curvature="0"
     style="opacity:1;fill:#ffffff;fill-opacity:1;stroke-width:0.264583;stop-opacity:1" />
</svg>
