<?xml version="1.0" encoding="UTF-8"?>
<svg width="24" height="24" version="1.1" viewBox="0 0 24 24" xml:space="preserve" xmlns="http://www.w3.org/2000/svg"><path d="m5.33 12.1v7.72c0 0.673 0.498 1.22 1.11 1.22h3.15c0.307 0 0.556-0.273 0.556-0.61v-5.28c0-0.111 0.0829-0.203 0.185-0.203h3.33c0.101 0 0.185 0.0918 0.185 0.203v5.28c0 0.337 0.249 0.61 0.556 0.61h3.15c0.613 0 1.11-0.546 1.11-1.22v-7.72zm16.3-1.66-9.25-8.23c-0.242-0.215-0.623-0.215-0.865 0l-9.26 8.24c-0.196 0.182-0.308 0.433-0.308 0.689 0 0.533 0.468 0.967 1.04 0.967h17.9c0.574 0 1.04-0.434 1.04-0.967 0-0.256-0.112-0.507-0.318-0.697z" fill="#fff" /></svg>
