<?xml version="1.0" encoding="UTF-8" standalone="no"?>
<svg
   xmlns:dc="http://purl.org/dc/elements/1.1/"
   xmlns:cc="http://creativecommons.org/ns#"
   xmlns:rdf="http://www.w3.org/1999/02/22-rdf-syntax-ns#"
   xmlns:svg="http://www.w3.org/2000/svg"
   xmlns="http://www.w3.org/2000/svg"
   xmlns:sodipodi="http://sodipodi.sourceforge.net/DTD/sodipodi-0.dtd"
   xmlns:inkscape="http://www.inkscape.org/namespaces/inkscape"
   inkscape:version="1.0beta2 (654b821, 2020-03-27)"
   sodipodi:docname="image.svg"
   id="svg27238"
   viewBox="0 0 24 24"
   version="1.1"
   height="24"
   width="24">
  <metadata
     id="metadata27242">
    <rdf:RDF>
      <cc:Work
         rdf:about="">
        <dc:format>image/svg+xml</dc:format>
        <dc:type
           rdf:resource="http://purl.org/dc/dcmitype/StillImage" />
        <dc:title />
      </cc:Work>
    </rdf:RDF>
  </metadata>
  <sodipodi:namedview
     inkscape:document-rotation="0"
     inkscape:current-layer="svg27238"
     inkscape:window-maximized="1"
     inkscape:window-y="-8"
     inkscape:window-x="-8"
     inkscape:cy="11.106215"
     inkscape:cx="12.678418"
     inkscape:zoom="27.812867"
     inkscape:pagecheckerboard="true"
     showgrid="false"
     id="namedview27240"
     inkscape:window-height="1377"
     inkscape:window-width="3440"
     inkscape:pageshadow="2"
     inkscape:pageopacity="0"
     guidetolerance="10"
     gridtolerance="10"
     objecttolerance="10"
     borderopacity="1"
     bordercolor="#666666"
     pagecolor="#ffffff" />
  <defs
     id="defs27228">
    <style
       id="style27226">.cls-1{fill:#fff;}</style>
  </defs>
  <g
     style="fill:#ffffff"
     id="g27236"
     transform="translate(0,-291.6503)">
    <path
       sodipodi:nodetypes="sssssssssccccc"
       inkscape:connector-curvature="0"
       id="path27230"
       style="color:#000000;font-variant-ligatures:normal;font-variant-position:normal;font-variant-caps:normal;font-variant-numeric:normal;font-variant-alternates:normal;font-feature-settings:normal;text-indent:0;text-decoration:none;text-decoration-line:none;text-decoration-style:solid;text-decoration-color:#000000;text-transform:none;text-orientation:mixed;dominant-baseline:auto;white-space:normal;shape-padding:0;isolation:auto;mix-blend-mode:normal;solid-color:#000000;paint-order:normal;color-rendering:auto;image-rendering:auto;shape-rendering:auto"
       dominant-baseline="auto"
       d="M 1.5137,291.65038 C 0.69624,291.65037 0,292.34658 0,293.16408 v 20.97097 c 0,0.81745 0.69621,1.5156 1.5137,1.5156 h 20.973 c 0.81746,0 1.5137,-0.69817 1.5137,-1.5156 v -20.97097 c 0,-0.81746 -0.69621,-1.5137 -1.5137,-1.5137 z m 0.48633,1.99984 h 20 v 19.99973 h -20 z" />
    <path
       style="stroke-width:0.94281"
       inkscape:connector-curvature="0"
       id="path27232"
       d="M 4.6450618,311.6503 H 19.353062 a 0.62912,0.6522 0 0 0 0.52489,-1.0381 l -2.0288,-2.8558 a 0.62912,0.6522 0 0 0 -0.94926,-0.085 l -2.0847,2.057 -4.8394002,-6.8115 a 0.62912,0.6522 0 0 0 -1.0349,0.0302 l -4.8394,7.6952 a 0.62912,0.6522 0 0 0 0.5435,1.0072 z" />
    <circle
       id="circle27234"
       r="2"
       cy="299.64999"
       cx="16" />
  </g>
</svg>
