<?xml version="1.0" encoding="UTF-8" standalone="no"?>
<svg
   width="24"
   height="24"
   version="1.1"
   viewBox="0 0 6.35 6.35"
   id="svg9105"
   sodipodi:docname="layers.svg"
   inkscape:version="1.1 (c68e22c387, 2021-05-23)"
   xmlns:inkscape="http://www.inkscape.org/namespaces/inkscape"
   xmlns:sodipodi="http://sodipodi.sourceforge.net/DTD/sodipodi-0.dtd"
   xmlns="http://www.w3.org/2000/svg"
   xmlns:svg="http://www.w3.org/2000/svg">
  <defs
     id="defs9109" />
  <sodipodi:namedview
     id="namedview9107"
     pagecolor="#ffffff"
     bordercolor="#666666"
     borderopacity="1.0"
     inkscape:pageshadow="2"
     inkscape:pageopacity="0.0"
     inkscape:pagecheckerboard="true"
     showgrid="false"
     inkscape:zoom="22.951508"
     inkscape:cx="11.219307"
     inkscape:cy="12.35213"
     inkscape:window-width="2076"
     inkscape:window-height="1003"
     inkscape:window-x="330"
     inkscape:window-y="280"
     inkscape:window-maximized="0"
     inkscape:current-layer="svg9105" />
  <g
     transform="matrix(0.00905849,0,0,0.00930522,1.2815933e-5,0.51027706)"
     fill="#ffffff"
     stroke-width="38.4295"
     id="g9103">
    <path
       d="m 10.3,204 305,159 c 11.1,5.77 23.1,8.67 35.2,8.67 12.1,0 24.1,-2.91 35.2,-8.67 l 305,-159 c 6.3,-3.3 10.3,-9.91 10.3,-17.1 0,-7.21 -3.96,-13.9 -10.3,-17.2 l -305,-159 C 374.6,4.91 362.6,2.03 350.5,2.03 c -12.1,0 -24.2,2.88 -35.2,8.64 l -305,159 C 4.02,172.97 0,179.6 0,186.77 c 0,7.22 3.98,13.8 10.3,17.2 z"
       id="path9101"
       style="stroke-width:38.4295" />
  </g>
  <path
     d="M 6.2504551,3.5323915 5.0234371,2.7796288 4.533666,3.0687856 5.4976623,3.7038285 3.3012393,4.9871947 c -0.039908,0.023059 -0.085653,0.047221 -0.1294071,0.03529 -0.1294072,-0.03529 -0.08968,-0.012432 -0.1294072,-0.03529 L 0.78836246,3.6910861 1.7532636,3.0114448 1.3778669,2.6458333 0.0932093,3.5323915 C 0.0363788,3.5652758 0,3.6317451 0,3.7038285 0,3.776113 0.0360168,3.8421811 0.0932093,3.8752654 l 2.7600822,1.5940629 c 0.1004489,0.057848 0.2090423,0.086922 0.3185407,0.086922 0.1094983,0 0.2180917,-0.029175 0.3185406,-0.086922 L 6.2504551,3.8752654 c 0.057011,-0.033084 0.093209,-0.099353 0.093209,-0.1714369 7.24e-5,-0.072285 -0.035745,-0.1383527 -0.092304,-0.1724395 z"
     id="path9099"
     style="fill:#ffffff;fill-opacity:1;stroke-width:0.352823"
     sodipodi:nodetypes="cccccscccccsccsccccc" />
</svg>
