<?xml version="1.0" encoding="UTF-8"?>
<svg width="16" height="16" version="1.1" viewBox="0 0 16 16" xml:space="preserve" xmlns="http://www.w3.org/2000/svg"><g transform="matrix(.0283 0 0 .0273 -.296 -1.85e-6)" stroke-width="35.9"><g stroke-width="35.9">
	<g stroke-width="35.9">
		<path class="active-path" d="m293 36.6c-94.4 0-171 76.8-171 171v61.2c0 1.11-1.37 2.98-2.45 3.34-9.26 3.09-16.8 5.76-23.7 8.42-8.21 3.16-14.4 12.3-14.4 21.2v188c0 8.84 6.15 17.9 14.3 21.2 63.1 25 130 37.7 197 37.7s134-12.7 197-37.7c8.15-3.23 14.3-12.3 14.3-21.2v-188c0-8.9-6.19-18-14.4-21.2-6.88-2.65-14.4-5.33-23.7-8.42-1.07-0.358-2.44-2.23-2.44-3.34v-61.2c-5e-3 -94.4-76.8-171-171-171zm-46.6 334c0-25.8 20.9-46.6 46.6-46.6 25.7 0 46.6 20.9 46.6 46.6 0 17.1-9.63 31.4-23.3 39.5v40.5c0 12.9-10.4 23.3-23.3 23.3-12.9 0-23.3-10.4-23.3-23.3v-40.5c-13.7-8.1-23.3-22.4-23.3-39.5zm159-162v47.8c-36.8-7.93-74.6-11.9-112-11.9-37.7 0-75.4 4.02-112 11.9v-47.7c0-61.9 50.4-112 112-112 61.9-1e-3 112 50.4 112 112z" fill="#fff" stroke-width="35.9" data-old_color="#ffffff" data-original="#000000"/>
	</g>
</g></g> </svg>
