<?xml version="1.0" encoding="UTF-8"?>
<svg width="24" height="24" version="1.1" viewBox="0 0 6.35 6.35" xmlns="http://www.w3.org/2000/svg">
 <path d="m6.05 5.63-2.58-5.18c-0.047-0.0929-0.138-0.157-0.243-0.171-0.0313-0.00848-0.0643-0.00848-0.0956 0-0.105 0.014-0.196 0.078-0.243 0.171l-2.58 5.18c-0.0516 0.0982-0.047 0.216 0.0122 0.31 0.0592 0.0941 0.164 0.151 0.277 0.15 0.038 5.71e-4 0.0756-0.00588 0.111-0.019l2.47-0.879h0.0155l2.47 0.879c0.081 0.0287 0.17 0.0245 0.248-0.0116 0.0778-0.0362 0.138-0.101 0.166-0.181 0.0286-0.0796 0.0236-0.167-0.0139-0.243zm-2.88-0.996-2.22 0.792 2.22-4.43z" fill="#fff" stroke-width=".353"/>
</svg>
