<?xml version="1.0" encoding="UTF-8"?>
<svg width="24" height="24" version="1.1" viewBox="0 0 24 24" xml:space="preserve" xmlns="http://www.w3.org/2000/svg"><g transform="matrix(.0547 0 0 .055 -.000168 -4.57)" stroke-width="18.2"><g stroke-width="18.2"/></g><g transform="matrix(.0237 0 0 .0233 .814 1)" fill="#fff" stroke-width="42.6"><g fill="#fff" stroke-width="42.6"><path d="m38.3 944 183-60.1c6.7-2.2 12.8-5.9 17.7-10.9l430-432-171-171-428 431c-5.6 5.7-9.6 12.8-11.6 20.6l-49.2 195c-4.4 17.5 12.6 33.4 29.8 27.7z"/><path d="m922 102-86.6-86.6c-20.9-20.9-63.3-21.2-83.8-0.8l-211 212 171 171 66.5-66.9 32.4 32.6c7.8 7.8 7.7 20.5 0 28.3l-95 94.8-178 177c-15.6 15.6-15.7 40.9-0.1 56.6 7.8 7.8 18.1 11.7 28.3 11.7s20.4-3.9 28.3-11.7l273-272c39-38.9 39.1-102 0.2-141l-32.7-32.9 88.2-88.7c20.5-20.5 20.2-62.9-0.699-83.8z"/></g></g></svg>
