<svg xmlns="http://www.w3.org/2000/svg" xml:space="preserve" viewBox="0 0 20 20">
  <path fill="#fff" d="m19.269 8.544-1.981-.331a7.462 7.462 0 0 0-.628-1.676l1.268-1.573a.874.874 0 0 0-.027-1.13l-.788-.887a.874.874 0 0 0-1.12-.16L14.3 3.852a7.456 7.455 0 0 0-2.5-1.129l-.332-1.99A.874.874 0 0 0 10.605 0H9.417a.872.872 0 0 0-.862.731L8.22 2.723a7.451 7.45 0 0 0-2.102.874l-1.611-1.15a.876.876 0 0 0-1.128.093l-.839.84a.874.874 0 0 0-.092 1.127L3.6 6.122a7.47 7.47 0 0 0-.866 2.088L.73 8.543a.874.874 0 0 0-.73.866v1.185c0 .429.311.794.731.863l2.004.335c.15.614.37 1.2.663 1.744L2.134 15.1a.874.874 0 0 0 .027 1.131l.787.887a.876.876 0 0 0 1.121.16l1.719-1.079a7.444 7.444 0 0 0 2.433 1.079l.334 1.992a.87.87 0 0 0 .86.731h1.189a.874.874 0 0 0 .862-.731l.333-1.992a7.44 7.44 0 0 0 2.078-.859l1.679 1.198a.873.873 0 0 0 1.128-.094l.838-.84a.872.872 0 0 0 .093-1.126l-1.196-1.676a7.433 7.433 0 0 0 .869-2.093l1.981-.33a.873.873 0 0 0 .731-.864V9.407a.874.874 0 0 0-.73-.863zm-9.238 5.205a3.751 3.75 0 1 1 .002-7.5 3.751 3.75 0 0 1-.002 7.5z"/>
</svg>