<?xml version="1.0" encoding="UTF-8"?>
<svg width="20" height="20" version="1.1" viewBox="0 0 20 20" xml:space="preserve" xmlns="http://www.w3.org/2000/svg"><g transform="matrix(.0301 .0301 -.0301 .0301 11.2 -5.47)" stroke-width="23.5"><g stroke-width="23.5">
	<path class="active-path" d="m475 187c0-7.04-5.33-11.4-16-13.1l-143-20.8-64.2-130c-3.61-7.8-8.28-11.7-14-11.7-5.71 0-10.4 3.9-14 11.7l-64.2 130-143 20.8c-10.7 1.72-16 6.09-16 13.1 0 4 2.38 8.57 7.14 13.7l104 101-24.6 143c-0.381 2.67-0.57 4.58-0.57 5.71 0 4 0.998 7.37 3 10.1 2 2.77 4.99 4.14 8.99 4.14 3.43 0 7.23-1.14 11.4-3.42l128-67.4 128 67.4c4 2.29 7.81 3.43 11.4 3.43 7.81 0 11.7-4.75 11.7-14.3 0-2.47-0.096-4.37-0.287-5.72l-24.6-143 104-101c4.95-4.96 7.42-9.53 7.42-13.7zm-150 102 20.6 120-108-56.8-108 56.8 20.8-120-87.4-84.8 120-17.7 54-109 54 109 120 17.7z" fill="#fff" stroke-width="558" data-old_color="#ffffff" data-original="#000000"/>
</g></g> </svg>
