<?xml version="1.0" encoding="UTF-8" standalone="no"?>
<svg
   xmlns:dc="http://purl.org/dc/elements/1.1/"
   xmlns:cc="http://creativecommons.org/ns#"
   xmlns:rdf="http://www.w3.org/1999/02/22-rdf-syntax-ns#"
   xmlns:svg="http://www.w3.org/2000/svg"
   xmlns="http://www.w3.org/2000/svg"
   xmlns:sodipodi="http://sodipodi.sourceforge.net/DTD/sodipodi-0.dtd"
   xmlns:inkscape="http://www.inkscape.org/namespaces/inkscape"
   inkscape:version="1.0beta2 (654b821, 2020-03-27)"
   sodipodi:docname="shape-path.svg"
   class=""
   xml:space="preserve"
   viewBox="0 0 18 18"
   height="18"
   width="18"
   y="0px"
   x="0px"
   id="Capa_1"
   version="1.1"><metadata
   id="metadata930"><rdf:RDF><cc:Work
       rdf:about=""><dc:format>image/svg+xml</dc:format><dc:type
         rdf:resource="http://purl.org/dc/dcmitype/StillImage" /><dc:title></dc:title></cc:Work></rdf:RDF></metadata><defs
   id="defs928" /><sodipodi:namedview
   inkscape:current-layer="Capa_1"
   inkscape:window-maximized="0"
   inkscape:window-y="0"
   inkscape:window-x="0"
   inkscape:cy="8.8420655"
   inkscape:cx="6.9751633"
   inkscape:zoom="32"
   inkscape:pagecheckerboard="true"
   showgrid="false"
   id="namedview926"
   inkscape:window-height="1304"
   inkscape:window-width="1866"
   inkscape:pageshadow="2"
   inkscape:pageopacity="0"
   guidetolerance="10"
   gridtolerance="10"
   objecttolerance="10"
   borderopacity="1"
   bordercolor="#666666"
   pagecolor="#ffffff" /> <g
   style="stroke-width:3.95426"
   transform="matrix(0.25007806,0,0,0.25573716,-3.5035757,-3.7871078)"
   id="g1510"><path
     sodipodi:nodetypes="cccccccccccccccccccccccccccccccccccccccccccccccc"
     inkscape:connector-curvature="0"
     d="m 57.035156,14.808594 c -3.739421,-0.152753 -6.674259,2.475561 -8.586543,5.41822 -2.668986,3.375645 -5.091723,6.96377 -7.943599,10.181787 -2.928878,2.508928 -7.000191,2.10002 -10.567851,2.82699 -3.696254,0.63695 -7.508729,0.774985 -11.109551,1.827212 -4.876738,1.854301 -6.400445,8.732876 -2.85232,12.526312 2.643592,3.800156 6.620167,7.255961 6.389966,12.300644 -0.230774,4.052572 -3.951125,5.938007 -5.374376,9.649999 -0.980854,2.692631 -2.803325,5.180224 -2.901039,8.10721 -0.04537,3.710712 5.078338,7.355699 8.426942,7.16314 2.298472,0.321567 4.550333,-0.32877 6.004275,-2.150199 2.306815,-2.105754 4.612234,-4.215109 6.919922,-6.318614 2.842456,-1.493167 5.763546,0.156396 7.941733,1.986327 2.678194,1.78946 5.080569,4.052529 7.968465,5.4835 3.942762,1.576748 9.582361,-1.584688 9.236095,-6.06908 -0.393805,-3.400875 -1.153165,-6.791013 -1.302768,-10.199061 -0.318253,-4.17616 3.694361,-6.442544 6.95196,-7.947712 3.707654,-0.507207 7.087135,-0.02967 10.578899,0.403533 3.715726,0.411758 7.229383,-1.682723 7.574143,-5.631885 1.106241,-4.806883 2.176322,-9.941553 1.120968,-14.8388 -1.175666,-3.852098 -5.052349,-5.980575 -8.876867,-6.195067 -3.155277,-0.597349 -7.156777,-0.350945 -8.902932,-3.648376 -1.913777,-4.142705 -1.140881,-9.528122 -4.937769,-12.720299 -1.581493,-1.37377 -3.661257,-2.162771 -5.757753,-2.155781 z m 0.59961,5.916015 c 2.740836,0.654522 2.484243,3.87368 3.161055,6.025297 0.618888,3.907791 2.256596,7.903083 5.835017,9.984276 3.516129,2.279435 7.889995,1.803696 11.770331,2.916142 2.971711,1.712974 1.338413,5.696353 1.329169,8.438079 -0.09705,3.181543 -1.461864,6.931962 -5.37058,6.05061 -4.589627,0.38169 -9.467447,-0.395413 -13.836941,1.299097 -3.440788,1.708859 -5.51728,5.107348 -6.465318,8.727112 -1.259139,3.555161 -0.04786,7.240672 0.165163,10.86141 0.135363,0.773103 0.167054,3.406395 0.540241,1.243566 -0.673098,2.417115 -1.632085,3.294966 -3.271542,1.287142 -2.670991,-2.052008 -5.184807,-4.335293 -7.961466,-6.231813 -3.314206,-1.719306 -7.824559,-2.059033 -10.977698,0.115122 l -8.8241,8.345745 c -1.118198,-0.382301 -4.070861,-2.398194 -3.778543,-2.335826 -0.03666,-0.759374 0.941601,-2.520066 1.450544,-3.723363 1.73394,-4.177751 5.511984,-6.533751 6.53674,-10.965658 1.109211,-5.397293 -0.930265,-10.925019 -4.47812,-14.98592 -1.147418,-1.750016 -2.83474,-3.222603 -3.580544,-5.179219 -0.217615,-2.479983 2.619992,-2.390011 4.329192,-2.652866 4.958126,-0.767001 9.973837,-1.229927 14.887841,-2.230743 5.29095,-1.298476 8.005634,-6.222672 11.14087,-10.176122 1.670373,-2.067914 3.111533,-4.348675 4.940608,-6.269564 0.70226,-0.494862 1.610665,-0.723112 2.458081,-0.542504 z"
     style="fill:#ffffff;fill-opacity:1;stroke:none;stroke-width:3.95425;stroke-miterlimit:4;stroke-dasharray:none;stroke-opacity:1"
     id="path1493" /></g><circle
   r="1"
   cy="17"
   cx="14"
   id="path1515"
   style="fill:#ffffff;fill-opacity:1;stroke:none;stroke-width:1;stroke-linejoin:round;stroke-miterlimit:4;stroke-dasharray:none;stroke-opacity:1;paint-order:stroke markers fill" /><circle
   style="fill:#ffffff;fill-opacity:1;stroke:none;stroke-width:1;stroke-linejoin:round;stroke-miterlimit:4;stroke-dasharray:none;stroke-opacity:1;paint-order:stroke markers fill"
   id="path1515-3"
   cx="17"
   cy="17"
   r="1" /></svg>
