<?xml version="1.0" encoding="UTF-8"?>
<svg width="24" height="24" version="1.1" viewBox="0 0 24 24" xml:space="preserve" xmlns="http://www.w3.org/2000/svg">
  
  
  
  <g transform="matrix(1.73e-6 1.73e-6 -1.73e-6 1.73e-6 -7.37 22.3)" clip-rule="evenodd" fill="#ffffff" fill-rule="evenodd" font-family="'Helvetica Neue', Helvetica, Arial-Unicode, Arial, Sans-serif" font-size="5px" font-weight="bold" image-rendering="optimizeQuality" shape-rendering="geometricPrecision" stroke-width="427290" text-rendering="geometricPrecision">
<text y="9000015">Created by fafa maulinda</text>

<text y="9000020">from the Noun Project</text>

</g>
  <path d="m13.5 6c-3.31-0.837-6.68 1.17-7.52 4.48-0.837 3.31 1.17 6.68 4.48 7.52 3.31 0.837 6.68-1.17 7.52-4.48 0.837-3.31-1.17-6.68-4.48-7.52z" fill="#fff"/>
  <g transform="matrix(.0469 .0119 -.0119 .0469 3.03 -3.04)" fill="#fff" stroke-width="20.7">
    <g fill="#fff" stroke-width="20.7">
	<g fill="#fff" stroke-width="20.7">
		<g fill="#fff" stroke-width="20.7">
			
			<path d="m465 303 46.5-46.5-46.5-46.7c-4.66-4.63-6.48-11.4-4.75-17.7l17-63.5-63.6-17.2c-6.34-1.68-11.3-6.64-13-13l-17-63.5-63.7 16.9c-6.34 1.75-13.1-0.072-17.7-4.75l-46.5-46.5-46.7 46.5c-4.62 4.67-11.4 6.49-17.7 4.75l-63.5-17-17.2 63.6c-1.68 6.34-6.64 11.3-13 13l-63.5 17 16.9 63.7c1.72 6.34-0.094 13.1-4.75 17.7l-46.5 46.5 46.5 46.7c4.66 4.63 6.48 11.4 4.75 17.7l-17 63.5 63.6 17.2c6.34 1.68 11.3 6.64 13 13l17 63.5 63.7-16.9c1.52-0.437 3.09-0.652 4.66-0.64 4.9 1e-3 9.6 1.94 13.1 5.39l46.5 46.5 46.7-46.5c4.61-4.68 11.4-6.5 17.7-4.75l63.5 17 17.2-63.6c1.68-6.34 6.64-11.3 13-13l63.5-17-16.9-63.7c-1.72-6.34 0.092-13.1 4.75-17.7zm-209 124c-101 0-171-69.7-171-171s69.7-171 171-171 171 69.7 171 171c-0.101 101-69.7 171-171 171z" fill="#fff" stroke-width="20.7"/>

		</g>

	</g>

</g>
    
    
    
    
    
    
    
    
    
    
    
    
    
    
    
  </g>
</svg>
