<?xml version="1.0" encoding="UTF-8"?>
<svg width="24" height="24" version="1.1" viewBox="0 0 24 24" xml:space="preserve" xmlns="http://www.w3.org/2000/svg"><g transform="matrix(1.73e-6 1.73e-6 -1.73e-6 1.73e-6 -7.37 22.3)" clip-rule="evenodd" fill="#ffffff" fill-rule="evenodd" font-family="'Helvetica Neue', Helvetica, Arial-Unicode, Arial, Sans-serif" font-size="5px" font-weight="bold" image-rendering="optimizeQuality" shape-rendering="geometricPrecision" stroke-width="427290" text-rendering="geometricPrecision"><text y="9000015">Created by fafa maulinda</text>
<text y="9000020">from the Noun Project</text>
</g><path d="m19.4 19.4c4.1-4.1 4.1-10.8-2e-5 -14.9-4.1-4.1-10.8-4.1-14.9-1.81e-5 -4.1 4.1-4.1 10.8 1.64e-5 14.9 4.1 4.1 10.8 4.1 14.9 1.5e-5zm-1.68-13.1-11.4 11.4c-3.15-3.15-3.15-8.28-1.32e-5 -11.4 3.15-3.15 8.28-3.15 11.4 1.44e-5z" clip-rule="evenodd" fill="#fff" fill-rule="evenodd" image-rendering="optimizeQuality" shape-rendering="geometricPrecision"/></svg>
