<?xml version="1.0" encoding="UTF-8" standalone="no"?>
<svg
   xmlns:dc="http://purl.org/dc/elements/1.1/"
   xmlns:cc="http://creativecommons.org/ns#"
   xmlns:rdf="http://www.w3.org/1999/02/22-rdf-syntax-ns#"
   xmlns:svg="http://www.w3.org/2000/svg"
   xmlns="http://www.w3.org/2000/svg"
   xmlns:sodipodi="http://sodipodi.sourceforge.net/DTD/sodipodi-0.dtd"
   xmlns:inkscape="http://www.inkscape.org/namespaces/inkscape"
   inkscape:version="1.0beta2 (654b821, 2020-03-27)"
   sodipodi:docname="x.svg"
   id="svg1004"
   xml:space="preserve"
   viewBox="0 0 16 16"
   version="1.1"
   height="16"
   width="16"><metadata
   id="metadata1010"><rdf:RDF><cc:Work
       rdf:about=""><dc:format>image/svg+xml</dc:format><dc:type
         rdf:resource="http://purl.org/dc/dcmitype/StillImage" /><dc:title></dc:title></cc:Work></rdf:RDF></metadata><defs
   id="defs1008" /><sodipodi:namedview
   inkscape:current-layer="svg1004"
   inkscape:window-maximized="0"
   inkscape:window-y="0"
   inkscape:window-x="0"
   inkscape:cy="8"
   inkscape:cx="8"
   inkscape:zoom="14.75"
   inkscape:pagecheckerboard="true"
   showgrid="false"
   id="namedview1006"
   inkscape:window-height="1032"
   inkscape:window-width="1846"
   inkscape:pageshadow="2"
   inkscape:pageopacity="0"
   guidetolerance="10"
   gridtolerance="10"
   objecttolerance="10"
   borderopacity="1"
   bordercolor="#666666"
   pagecolor="#ffffff" /> <path
   inkscape:connector-curvature="0"
   id="path1002"
   stroke-width="23.4"
   fill="#ffffff"
   d="m 9.4389269,8.19 c -0.091651,-0.11 -0.091651,-0.274 0,-0.384 L 12.863356,3.696 C 12.955008,3.586 13,3.422 13,3.312 13,3.202 12.95434,3.038 12.863356,2.928 l -0.63906,-0.767 c -0.09165,-0.11 -0.228295,-0.164 -0.319947,-0.164 -0.136644,0 -0.228295,0.0548 -0.319946,0.164 l -3.4244296,4.11 c -0.091651,0.11 -0.2282953,0.11 -0.3199467,0 L 4.4155974,2.161 C 4.323946,2.051 4.1873021,1.997 4.0956507,1.997 4.0039993,1.997 3.8673555,2.0518 3.7757041,2.161 L 3.1366439,2.928 C 3.0449925,3.038 3,3.202 3,3.312 3,3.422 3.045659,3.586 3.1366439,3.696 l 3.4244293,4.11 c 0.091651,0.11 0.091651,0.274 0,0.384 L 3.1366439,12.3 C 3.0449925,12.41 3,12.574 3,12.684 c 0,0.11 0.045659,0.274 0.1366439,0.384 l 0.6390602,0.767 c 0.091651,0.11 0.2282952,0.164 0.3199466,0.164 0.091651,0 0.2282953,-0.0548 0.3199467,-0.164 l 3.4244293,-4.11 c 0.091651,-0.11 0.2282953,-0.11 0.3199467,0 l 3.4244296,4.11 c 0.09165,0.11 0.228295,0.164 0.319946,0.164 0.09165,0 0.228296,-0.0548 0.319947,-0.164 l 0.63906,-0.767 C 12.955006,12.958 13,12.794 13,12.684 13,12.574 12.95434,12.41 12.863356,12.3 Z" /></svg>
